<?xml version="1.0" encoding="utf-8"?>
<!-- Generator: Adobe Illustrator 22.1.0, SVG Export Plug-In . SVG Version: 6.00 Build 0)  -->
<svg version="1.1" id="Layer_1" xmlns="http://www.w3.org/2000/svg" xmlns:xlink="http://www.w3.org/1999/xlink" x="0px" y="0px"
	 viewBox="0 0 183.1 320" style="enable-background:new 0 0 183.1 320;" xml:space="preserve">
<style type="text/css">
	.st0{fill:#FFFFFF;}
</style>
<g>
	<g>
		<path d="M6.6,313.5c-1.2,0-2.4-0.2-3.5-0.6c-1.1-0.4-2-1-2.6-1.8l1.3-1.5c1.4,1.5,3.1,2.3,5.2,2.3c1.4,0,2.6-0.3,3.5-1
			c0.9-0.6,1.4-1.5,1.4-2.6c0-0.4-0.1-0.7-0.3-1s-0.4-0.5-0.8-0.7c-0.3-0.2-0.8-0.4-1.3-0.6c-0.5-0.2-1.1-0.3-1.8-0.5
			c-0.8-0.2-1.4-0.4-2-0.6c-0.6-0.2-1-0.4-1.4-0.7c-0.4-0.3-0.7-0.6-0.8-0.9c-0.2-0.3-0.3-0.8-0.3-1.3c0-0.9,0.2-1.7,0.6-2.5
			c0.4-0.7,0.9-1.3,1.6-1.8c0.6-0.5,1.4-0.9,2.3-1.1c0.9-0.3,1.8-0.4,2.7-0.4c1.2,0,2.3,0.2,3.2,0.6c0.9,0.4,1.6,1,2.1,1.6l-1.3,1.3
			c-0.4-0.6-1.1-1.1-1.8-1.4c-0.8-0.3-1.6-0.5-2.5-0.5c-0.6,0-1.2,0.1-1.7,0.2c-0.6,0.1-1,0.4-1.4,0.7c-0.4,0.3-0.7,0.7-1,1.1
			c-0.2,0.4-0.4,1-0.4,1.6c0,0.7,0.3,1.2,0.8,1.5c0.5,0.3,1.4,0.6,2.5,0.9c1.7,0.4,3,0.9,3.9,1.4c0.9,0.5,1.4,1.4,1.4,2.5
			c0,0.8-0.2,1.6-0.5,2.3c-0.4,0.7-0.9,1.3-1.5,1.8c-0.6,0.5-1.4,0.9-2.3,1.2C8.6,313.4,7.6,313.5,6.6,313.5"/>
		<path d="M19.4,313.4c-0.8,0-1.4-0.2-1.8-0.6c-0.4-0.4-0.7-1-0.7-1.7c0-0.1,0-0.3,0-0.4c0-0.1,0.1-0.3,0.1-0.5l4.3-20.2h2.2
			l-4.1,19.5c0,0.1,0,0.2-0.1,0.3c0,0.1,0,0.2,0,0.3c0,0.9,0.5,1.4,1.5,1.4c0.2,0,0.5,0,0.8-0.1c0.3-0.1,0.6-0.1,0.9-0.3l-0.1,1.7
			c-0.4,0.2-0.9,0.3-1.5,0.4C20.3,313.3,19.8,313.4,19.4,313.4"/>
		<path d="M31.5,313.5c-1,0-1.9-0.2-2.7-0.5c-0.8-0.4-1.5-0.9-2-1.5c-0.5-0.6-1-1.4-1.2-2.2c-0.3-0.9-0.4-1.8-0.4-2.7
			c0-1.3,0.3-2.6,0.8-3.8c0.5-1.2,1.2-2.3,2.1-3.3s1.9-1.7,3.2-2.3c1.2-0.6,2.5-0.9,4-0.9c0.7,0,1.4,0.1,2.1,0.3
			c0.6,0.2,1.2,0.5,1.7,0.8c0.5,0.4,0.9,0.8,1.1,1.4c0.3,0.6,0.4,1.2,0.4,1.9c0,1.6-0.7,2.9-2.2,3.7c-1.4,0.8-3.7,1.2-6.7,1.2
			c-0.6,0-1.2,0-1.9,0c-0.7,0-1.4-0.1-2.2-0.1c0,0.2,0,0.3-0.1,0.5c0,0.2,0,0.3,0,0.4c0,0.7,0.1,1.4,0.3,2.1
			c0.2,0.6,0.5,1.2,0.9,1.7c0.4,0.5,0.9,0.9,1.4,1.2c0.6,0.3,1.2,0.4,2,0.4c0.5,0,1-0.1,1.6-0.2c0.5-0.1,1-0.4,1.5-0.6
			c0.5-0.3,0.9-0.6,1.3-1c0.4-0.4,0.7-0.8,1-1.3l1.8,0.5c-0.4,0.6-0.8,1.2-1.4,1.7c-0.6,0.5-1.2,1-1.8,1.3c-0.7,0.4-1.4,0.7-2.1,0.9
			C33,313.4,32.2,313.5,31.5,313.5 M34.8,298c-1,0-1.8,0.2-2.6,0.5c-0.8,0.3-1.5,0.8-2.1,1.3c-0.6,0.6-1.1,1.2-1.6,1.9
			c-0.4,0.7-0.7,1.5-1,2.2c0.8,0,1.5,0.1,2.1,0.1c0.6,0,1.3,0,1.9,0c1.3,0,2.3-0.1,3.2-0.3c0.9-0.2,1.6-0.4,2.1-0.7
			c0.5-0.3,0.9-0.7,1.1-1.1c0.2-0.4,0.3-0.9,0.3-1.4c0-1-0.3-1.7-1.1-2.1C36.6,298.2,35.8,298,34.8,298"/>
		<path d="M48.5,313.5c-1,0-1.9-0.2-2.7-0.5c-0.8-0.4-1.5-0.9-2-1.5c-0.5-0.6-1-1.4-1.2-2.2c-0.3-0.9-0.4-1.8-0.4-2.7
			c0-1.3,0.3-2.6,0.8-3.8c0.5-1.2,1.2-2.3,2.1-3.3c0.9-0.9,1.9-1.7,3.2-2.3c1.2-0.6,2.5-0.9,4-0.9c0.7,0,1.4,0.1,2.1,0.3
			c0.6,0.2,1.2,0.5,1.7,0.8c0.5,0.4,0.9,0.8,1.1,1.4c0.3,0.6,0.4,1.2,0.4,1.9c0,1.6-0.7,2.9-2.2,3.7c-1.4,0.8-3.7,1.2-6.7,1.2
			c-0.6,0-1.2,0-1.9,0c-0.7,0-1.4-0.1-2.2-0.1c0,0.2,0,0.3-0.1,0.5c0,0.2,0,0.3,0,0.4c0,0.7,0.1,1.4,0.3,2.1
			c0.2,0.6,0.5,1.2,0.9,1.7c0.4,0.5,0.9,0.9,1.4,1.2c0.6,0.3,1.2,0.4,2,0.4c0.5,0,1-0.1,1.6-0.2c0.5-0.1,1-0.4,1.5-0.6
			c0.5-0.3,0.9-0.6,1.3-1c0.4-0.4,0.7-0.8,1-1.3l1.8,0.5c-0.4,0.6-0.8,1.2-1.4,1.7c-0.6,0.5-1.2,1-1.8,1.3c-0.7,0.4-1.4,0.7-2.1,0.9
			C50,313.4,49.2,313.5,48.5,313.5 M51.8,298c-1,0-1.8,0.2-2.6,0.5c-0.8,0.3-1.5,0.8-2.1,1.3c-0.6,0.6-1.1,1.2-1.6,1.9
			c-0.4,0.7-0.7,1.5-1,2.2c0.8,0,1.5,0.1,2.1,0.1c0.6,0,1.3,0,1.9,0c1.3,0,2.3-0.1,3.2-0.3c0.9-0.2,1.6-0.4,2.1-0.7
			c0.5-0.3,0.9-0.7,1.1-1.1c0.2-0.4,0.4-0.9,0.4-1.4c0-1-0.4-1.7-1.1-2.1C53.6,298.2,52.8,298,51.8,298"/>
		<path d="M62.1,296.6H64l-0.7,3.2c0.9-1,1.9-1.9,3-2.5c1.2-0.6,2.4-1,3.6-1c0.9,0,1.7,0.2,2.5,0.6c0.7,0.4,1.4,0.9,1.9,1.5
			c0.5,0.6,0.9,1.4,1.2,2.2c0.3,0.8,0.4,1.7,0.4,2.6c0,1.3-0.2,2.6-0.7,3.8c-0.5,1.2-1.2,2.3-2,3.3c-0.9,1-1.8,1.7-2.9,2.3
			c-1.1,0.6-2.3,0.9-3.5,0.9c-1.3,0-2.4-0.4-3.3-1.1c-0.9-0.7-1.5-1.6-1.9-2.7L59.3,320h-2.2L62.1,296.6z M66.4,311.6
			c1,0,1.9-0.2,2.7-0.7c0.9-0.5,1.6-1.1,2.3-1.8s1.2-1.6,1.5-2.6c0.4-0.9,0.6-1.9,0.6-2.9c0-0.7-0.1-1.4-0.3-2.1
			c-0.2-0.7-0.5-1.2-0.9-1.7c-0.4-0.5-0.9-0.9-1.4-1.2c-0.6-0.3-1.2-0.4-1.9-0.4c-0.5,0-1.1,0.1-1.7,0.3c-0.6,0.2-1.2,0.5-1.8,0.9
			c-0.6,0.4-1.1,0.8-1.5,1.3c-0.5,0.5-0.8,1-1,1.6l-1.1,5.1c0.1,0.6,0.3,1.1,0.6,1.7c0.3,0.5,0.6,1,1,1.3c0.4,0.4,0.8,0.7,1.3,0.9
			C65.3,311.5,65.9,311.6,66.4,311.6"/>
		<path d="M90.6,313.5c-1.2,0-2.4-0.2-3.5-0.6c-1.1-0.4-2-1-2.6-1.8l1.3-1.5c1.4,1.5,3.1,2.3,5.2,2.3c1.4,0,2.6-0.3,3.5-1
			c0.9-0.6,1.4-1.5,1.4-2.6c0-0.4-0.1-0.7-0.3-1c-0.2-0.3-0.4-0.5-0.8-0.7c-0.3-0.2-0.8-0.4-1.3-0.6c-0.5-0.2-1.1-0.3-1.8-0.5
			c-0.8-0.2-1.4-0.4-2-0.6c-0.6-0.2-1-0.4-1.4-0.7c-0.4-0.3-0.7-0.6-0.8-0.9c-0.2-0.3-0.3-0.8-0.3-1.3c0-0.9,0.2-1.7,0.6-2.5
			c0.4-0.7,0.9-1.3,1.6-1.8c0.6-0.5,1.4-0.9,2.3-1.1c0.9-0.3,1.8-0.4,2.7-0.4c1.2,0,2.3,0.2,3.2,0.6c0.9,0.4,1.6,1,2.1,1.6l-1.3,1.3
			c-0.4-0.6-1.1-1.1-1.8-1.4c-0.8-0.3-1.6-0.5-2.5-0.5c-0.6,0-1.2,0.1-1.7,0.2c-0.6,0.1-1,0.4-1.4,0.7c-0.4,0.3-0.7,0.7-1,1.1
			c-0.2,0.4-0.4,1-0.4,1.6c0,0.7,0.3,1.2,0.8,1.5c0.5,0.3,1.4,0.6,2.5,0.9c1.7,0.4,3,0.9,3.9,1.4c0.9,0.5,1.4,1.4,1.4,2.5
			c0,0.8-0.2,1.6-0.5,2.3c-0.4,0.7-0.9,1.3-1.5,1.8c-0.6,0.5-1.4,0.9-2.3,1.2C92.6,313.4,91.7,313.5,90.6,313.5"/>
		<path d="M107.2,313.5c-1,0-1.9-0.2-2.7-0.5c-0.8-0.4-1.5-0.9-2-1.5c-0.5-0.6-1-1.4-1.2-2.2c-0.3-0.9-0.4-1.8-0.4-2.7
			c0-1.3,0.3-2.6,0.8-3.8c0.5-1.2,1.2-2.3,2.1-3.3c0.9-0.9,1.9-1.7,3.2-2.3c1.2-0.6,2.5-0.9,4-0.9c0.7,0,1.4,0.1,2.1,0.3
			c0.6,0.2,1.2,0.5,1.7,0.8c0.5,0.4,0.9,0.8,1.1,1.4c0.3,0.6,0.4,1.2,0.4,1.9c0,1.6-0.7,2.9-2.2,3.7c-1.4,0.8-3.7,1.2-6.7,1.2
			c-0.6,0-1.2,0-1.9,0c-0.7,0-1.4-0.1-2.2-0.1c0,0.2,0,0.3,0,0.5c0,0.2,0,0.3,0,0.4c0,0.7,0.1,1.4,0.3,2.1c0.2,0.6,0.5,1.2,0.9,1.7
			c0.4,0.5,0.9,0.9,1.4,1.2c0.6,0.3,1.2,0.4,2,0.4c0.5,0,1-0.1,1.6-0.2c0.5-0.1,1-0.4,1.5-0.6c0.5-0.3,0.9-0.6,1.3-1
			c0.4-0.4,0.7-0.8,1-1.3l1.8,0.5c-0.4,0.6-0.8,1.2-1.4,1.7c-0.6,0.5-1.2,1-1.8,1.3c-0.7,0.4-1.4,0.7-2.1,0.9
			C108.7,313.4,108,313.5,107.2,313.5 M110.6,298c-1,0-1.8,0.2-2.6,0.5c-0.8,0.3-1.5,0.8-2.1,1.3c-0.6,0.6-1.1,1.2-1.6,1.9
			c-0.4,0.7-0.7,1.5-1,2.2c0.8,0,1.5,0.1,2.1,0.1c0.6,0,1.3,0,1.9,0c1.3,0,2.3-0.1,3.2-0.3c0.9-0.2,1.6-0.4,2.1-0.7
			c0.5-0.3,0.9-0.7,1.1-1.1c0.2-0.4,0.4-0.9,0.4-1.4c0-1-0.4-1.7-1.1-2.1C112.4,298.2,111.6,298,110.6,298"/>
		<path d="M120.8,296.6h2l-0.9,4c0.8-1.2,1.8-2.2,2.8-2.9c1.1-0.7,2.1-1.1,3.2-1.1c0.2,0,0.3,0,0.4,0c0.1,0,0.2,0,0.3,0l-0.4,1.9
			c-1.4,0-2.7,0.4-3.9,1.2c-1.2,0.8-2.1,1.8-2.9,3.2l-2.2,10.3h-2.2L120.8,296.6z"/>
		<path d="M129.8,296.6h2.3l2,14.6c1.8-2.4,3.4-4.8,4.7-7.3c1.3-2.5,2.3-4.9,2.9-7.3h2.1c-1.6,5.6-4.6,11.1-9,16.6h-2.3L129.8,296.6
			z"/>
		<path d="M147.4,296.6h2.2l-3.5,16.6h-2.2L147.4,296.6z M148.8,289.9h2.2l-0.7,3.2h-2.2L148.8,289.9z"/>
		<path d="M157.5,313.5c-1,0-1.9-0.2-2.6-0.6c-0.8-0.4-1.4-0.9-2-1.5c-0.5-0.6-1-1.4-1.2-2.2c-0.3-0.9-0.4-1.8-0.4-2.7
			c0-1.3,0.3-2.6,0.8-3.9c0.5-1.2,1.2-2.3,2.1-3.3c0.9-0.9,2-1.7,3.2-2.2c1.2-0.6,2.5-0.8,3.8-0.8c1.5,0,2.7,0.4,3.7,1.1
			c1,0.7,1.6,1.7,1.9,2.9l-2.2,0.7c-0.3-0.9-0.7-1.5-1.4-2c-0.7-0.5-1.5-0.7-2.5-0.7c-0.9,0-1.8,0.2-2.7,0.6c-0.9,0.4-1.6,1-2.3,1.7
			c-0.7,0.7-1.2,1.6-1.6,2.6c-0.4,1-0.6,2-0.6,3.1c0,0.8,0.1,1.5,0.3,2.1c0.2,0.6,0.5,1.2,0.9,1.7c0.4,0.5,0.8,0.9,1.4,1.1
			c0.5,0.3,1.1,0.4,1.8,0.4c0.5,0,1-0.1,1.5-0.2c0.5-0.1,1-0.4,1.5-0.6c0.5-0.3,0.9-0.6,1.3-0.9c0.4-0.3,0.7-0.7,0.8-1.1l2,0.6
			c-0.3,0.6-0.8,1.1-1.3,1.6c-0.5,0.5-1.1,0.9-1.8,1.3c-0.7,0.4-1.4,0.7-2.1,0.9C159,313.4,158.3,313.5,157.5,313.5"/>
		<path d="M174.2,313.5c-1,0-1.9-0.2-2.7-0.5c-0.8-0.4-1.5-0.9-2-1.5c-0.5-0.6-1-1.4-1.2-2.2c-0.3-0.9-0.4-1.8-0.4-2.7
			c0-1.3,0.3-2.6,0.8-3.8c0.5-1.2,1.2-2.3,2.1-3.3c0.9-0.9,1.9-1.7,3.2-2.3c1.2-0.6,2.5-0.9,4-0.9c0.7,0,1.4,0.1,2.1,0.3
			c0.6,0.2,1.2,0.5,1.7,0.8c0.5,0.4,0.9,0.8,1.1,1.4c0.3,0.6,0.4,1.2,0.4,1.9c0,1.6-0.7,2.9-2.2,3.7c-1.4,0.8-3.7,1.2-6.7,1.2
			c-0.6,0-1.2,0-1.9,0c-0.7,0-1.4-0.1-2.2-0.1c0,0.2,0,0.3,0,0.5c0,0.2,0,0.3,0,0.4c0,0.7,0.1,1.4,0.3,2.1c0.2,0.6,0.5,1.2,0.9,1.7
			c0.4,0.5,0.9,0.9,1.4,1.2c0.6,0.3,1.2,0.4,2,0.4c0.5,0,1-0.1,1.6-0.2c0.5-0.1,1-0.4,1.5-0.6c0.5-0.3,0.9-0.6,1.3-1
			c0.4-0.4,0.7-0.8,1-1.3l1.8,0.5c-0.4,0.6-0.8,1.2-1.4,1.7c-0.6,0.5-1.2,1-1.8,1.3c-0.7,0.4-1.4,0.7-2.1,0.9
			C175.7,313.4,175,313.5,174.2,313.5 M177.6,298c-1,0-1.8,0.2-2.6,0.5s-1.5,0.8-2.1,1.3c-0.6,0.6-1.1,1.2-1.6,1.9
			c-0.4,0.7-0.7,1.5-1,2.2c0.8,0,1.5,0.1,2.1,0.1c0.6,0,1.3,0,1.9,0c1.3,0,2.3-0.1,3.2-0.3c0.9-0.2,1.6-0.4,2.1-0.7
			c0.5-0.3,0.9-0.7,1.1-1.1c0.2-0.4,0.4-0.9,0.4-1.4c0-1-0.4-1.7-1.1-2.1C179.4,298.2,178.5,298,177.6,298"/>
	</g>
	<path d="M170.2,137.8c0.7-1,1.3-2,1.7-3.1c7-12.9,10.9-27.6,10.9-43.3C182.8,41,141.8,0,91.4,0C41,0,0,41,0,91.4s41,91.4,91.4,91.4
		c2.6,0,5.2-0.1,7.8-0.4l-43.3,61.9c-5.2,7.4-3.4,17.5,4,22.7c2.8,2,6.1,2.9,9.3,2.9c5.1,0,10.2-2.4,13.3-6.9l80.1-114.5
		c2.6-3.2,4.9-6.5,7-10L170.2,137.8z"/>
	<g>
		<path class="st0" d="M124.4,79.8c-3.3,0-6.2,1.2-8.5,3.1V69.6c0-1.3-1.1-2.4-2.4-2.4c-1.3,0-2.4,1.1-2.4,2.4v21.8
			c0,0.1,0.1,0.3,0.1,0.4c0,0.4-0.1,0.8-0.1,1.2c0,7.3,5.9,13.2,13.2,13.2c7.3,0,13.2-5.9,13.2-13.2
			C137.7,85.7,131.7,79.8,124.4,79.8 M124.4,101.6c-4.7,0-8.5-3.8-8.5-8.5c0-4.7,3.8-8.5,8.5-8.5c4.7,0,8.5,3.8,8.5,8.5
			C133,97.7,129.1,101.6,124.4,101.6"/>
		<path class="st0" d="M56.8,84.5c1.4,0,2.7,0.3,3.9,1c1.2,0.6,2.6,0.1,3.2-1c0.6-1.2,0.1-2.6-1-3.2c-1.9-1-4-1.5-6.1-1.5
			c-7.3,0-13.2,5.9-13.2,13.2c0,7.3,5.9,13.2,13.2,13.2c2.1,0,4.2-0.5,6.1-1.5c1.2-0.6,1.6-2,1-3.2c-0.6-1.2-2-1.6-3.2-1
			c-1.2,0.6-2.5,1-3.9,1c-4.7,0-8.5-3.8-8.5-8.5C48.3,88.3,52.1,84.5,56.8,84.5"/>
		<path class="st0" d="M103.8,80.5c-1.3,0-2.4,1.1-2.4,2.4V93c0,4.7-3.8,8.5-8.5,8.5c-4.7,0-8.5-3.8-8.5-8.5V83
			c0-1.3-1.1-2.4-2.4-2.4c-1.3,0-2.4,1.1-2.4,2.4v10c0,7.3,5.9,13.2,13.2,13.2c7.3,0,13.2-5.9,13.2-13.2V82.9
			C106.1,81.6,105.1,80.5,103.8,80.5"/>
		<path class="st0" d="M71.8,67.3c-1.3,0-2.4,1.1-2.4,2.4v34.3c0,1.3,1.1,2.4,2.4,2.4c1.3,0,2.4-1.1,2.4-2.4V69.6
			C74.2,68.3,73.1,67.3,71.8,67.3"/>
	</g>
</g>
</svg>
